<svg width="299" height="299" viewBox="0 0 299 299" fill="none" xmlns="http://www.w3.org/2000/svg">
    <path
        d="M149.5 163.5C149.5 163.5 119 159.5 119 135.5C119 129.824 119.084 121.659 119.212 112.5C119.212 112.5 119.041 137 133.5 137C147.959 137 149.5 128.5 149.5 128.5C149.5 128.5 149.5 137 163.5 137C177.5 137 179.5 120 179.5 120V135.5C179.5 163.5 149.5 163.5 149.5 163.5Z"
        fill="#D8E0A5" />
    <path
        d="M120.5 43C120.5 43 119.626 82.931 119.212 112.5M179.5 43C179.5 43 179.5 88.8331 179.5 120M119.212 112.5C119.084 121.659 119 129.824 119 135.5C119 159.5 149.5 163.5 149.5 163.5C149.5 163.5 179.5 163.5 179.5 135.5C179.5 131.103 179.5 125.806 179.5 120M119.212 112.5C119.212 112.5 119.041 137 133.5 137C147.959 137 149.5 128.5 149.5 128.5C149.5 128.5 149.5 137 163.5 137C177.5 137 179.5 120 179.5 120"
        stroke="#D8E0A5" stroke-width="12" stroke-linecap="round" />
    <path d="M149.5 42L148 284" stroke="#D8E0A5" stroke-width="13" stroke-linecap="round" />
    <path d="M211 107.5C210.167 98.6667 207.3 87.3 230.5 76.5C230.833 84.5 233 94.7 211 107.5Z" stroke="#D8E0A5"
        stroke-width="9" />
    <path d="M83.7122 108C84.5455 99.1667 87.4121 87.8 64.2121 77C63.8788 85 61.7122 95.2 83.7122 108Z" stroke="#D8E0A5"
        stroke-width="9" />
    <path fill-rule="evenodd" clip-rule="evenodd"
        d="M165.62 248.469C165.873 225.685 170.764 188.549 187 169C200.583 152.644 213.552 146.586 224.543 141.452C233.375 137.326 240.93 133.797 246.5 126C259 108.5 259.5 108.5 260 108.5C260.5 108.5 267 122.5 266 160.5C265 198.5 246.5 217 231 226.5C220.647 232.845 215.201 234.506 205.574 237.443C200.789 238.903 194.969 240.678 187 243.5C180.022 245.971 174.187 251.133 170.452 255.125C170.469 254.841 170.497 254.513 170.542 254.143C170.762 252.306 171.39 249.385 173.087 245.393C176.417 237.559 183.871 225.589 200.441 209.65C206.391 210.321 215.324 210.685 224.596 209.799C234.573 208.845 245.376 206.405 253.211 200.964C254.572 200.019 254.909 198.15 253.964 196.789C253.019 195.428 251.15 195.091 249.789 196.036C243.224 200.595 233.658 202.905 224.025 203.826C217.651 204.436 211.437 204.42 206.378 204.128C207.068 203.507 207.77 202.881 208.486 202.25C229.883 183.369 240.383 169.874 245.537 160.936C248.118 156.459 249.375 153.097 249.976 150.754C250.277 149.581 250.414 148.664 250.471 147.992C250.499 147.656 250.507 147.382 250.506 147.168C250.506 147.062 250.503 146.97 250.499 146.894C250.497 146.856 250.495 146.822 250.493 146.791L250.489 146.748L250.488 146.729L250.487 146.72C250.486 146.715 250.486 146.711 247.5 147L250.486 146.711C250.326 145.062 248.86 143.854 247.211 144.014C245.592 144.171 244.399 145.586 244.506 147.198V147.198C244.507 147.23 244.506 147.326 244.492 147.487C244.465 147.809 244.387 148.395 244.165 149.262C243.719 150.996 242.695 153.854 240.339 157.939C235.853 165.719 226.601 177.848 207.585 195.012C208.41 190.765 209.16 185.903 209.612 181C210.038 176.379 210.206 171.65 209.899 167.322C209.595 163.041 208.813 158.918 207.183 155.658C206.442 154.176 204.64 153.576 203.158 154.317C201.676 155.058 201.076 156.86 201.817 158.342C202.937 160.582 203.634 163.801 203.914 167.747C204.19 171.646 204.045 176.03 203.638 180.45C202.866 188.825 201.177 197.078 199.841 201.971C198.983 202.764 198.145 203.549 197.328 204.325C179.624 221.149 171.367 234.101 167.565 243.045C166.71 245.057 166.08 246.866 165.62 248.469ZM165.778 257.308C165.778 257.309 165.778 257.309 165.778 257.309L167.5 257C166.753 257.134 166.195 257.234 165.778 257.308ZM165.921 259.551C165.946 259.876 165.973 260.192 166 260.5C166 260.5 166.168 260.257 166.49 259.826C166.291 259.754 166.1 259.662 165.921 259.551Z"
        fill="#D8E0A5" />
    <path fill-rule="evenodd" clip-rule="evenodd"
        d="M132.484 247.969C132.231 225.185 127.34 188.049 111.104 168.5C97.5208 152.144 84.552 146.086 73.5613 140.952C64.7288 136.826 57.174 133.297 51.6044 125.5C39.1044 108 38.6043 108 38.1043 108C37.6043 108 31.1044 122 32.1044 160C33.1044 198 51.6044 216.5 67.1044 226C77.4575 232.345 82.9028 234.006 92.5297 236.943C97.3155 238.403 103.135 240.178 111.104 243C118.082 245.471 123.918 250.633 127.652 254.625C127.635 254.341 127.607 254.013 127.562 253.643C127.342 251.806 126.714 248.885 125.017 244.893C121.687 237.059 114.233 225.089 97.6626 209.15C91.7129 209.821 82.78 210.185 73.508 209.299C63.5308 208.345 52.7277 205.905 44.893 200.464C43.5321 199.519 43.195 197.65 44.1401 196.289C45.0851 194.928 46.9545 194.591 48.3154 195.536C54.8806 200.095 64.4459 202.405 74.0791 203.326C80.4529 203.936 86.6669 203.92 91.7257 203.628C91.0365 203.007 90.3342 202.381 89.6186 201.75C68.2211 182.869 57.7211 169.374 52.5674 160.436C49.9857 155.959 48.7295 152.597 48.1279 150.254C47.827 149.081 47.6901 148.164 47.6333 147.492C47.6049 147.156 47.5967 146.882 47.5977 146.668C47.5983 146.562 47.6011 146.47 47.605 146.394C47.6069 146.356 47.6091 146.322 47.6113 146.291L47.6147 146.248L47.6164 146.229L47.6173 146.22C47.6177 146.215 47.6181 146.211 50.6042 146.5L47.6181 146.211C47.7778 144.562 49.2441 143.354 50.8933 143.514C52.512 143.671 53.7052 145.086 53.5976 146.698V146.698C53.5975 146.73 53.5984 146.826 53.6121 146.987C53.6392 147.309 53.7171 147.895 53.9395 148.762C54.3847 150.496 55.4096 153.354 57.7652 157.439C62.2511 165.219 71.5034 177.348 90.519 194.512C89.6945 190.265 88.9437 185.403 88.4918 180.5C88.0659 175.879 87.8986 171.15 88.2054 166.822C88.509 162.541 89.2909 158.418 90.9209 155.158C91.6618 153.676 93.4639 153.076 94.9458 153.817C96.4277 154.558 97.0284 156.36 96.2874 157.842C95.1674 160.082 94.4702 163.301 94.1904 167.247C93.9139 171.146 94.0591 175.53 94.4665 179.95C95.2384 188.325 96.9269 196.578 98.2634 201.471C99.1214 202.264 99.9587 203.049 100.776 203.825C118.48 220.649 126.737 233.601 130.539 242.545C131.394 244.557 132.024 246.366 132.484 247.969ZM132.326 256.808C132.326 256.809 132.326 256.809 132.326 256.809L130.604 256.5C131.351 256.634 131.909 256.734 132.326 256.808ZM132.183 259.051C132.158 259.376 132.132 259.692 132.104 260C132.104 260 131.936 259.757 131.614 259.326C131.813 259.254 132.004 259.162 132.183 259.051Z"
        fill="#D8E0A5" />
    <circle cx="149.5" cy="149.5" r="143.5" stroke="#D8E0A5" stroke-width="12" />
</svg>