<svg version="1.0" xmlns="http://www.w3.org/2000/svg" width="30.000000pt" height="14.000000pt"
  viewBox="0 0 30.000000 14.000000" preserveAspectRatio="xMidYMid meet">
  <g transform="translate(0.000000,14.000000) scale(0.100000,-0.100000)" fill="#31582B" stroke="none">
    <path
      d="M103 120 c-12 -5 -28 -22 -36 -37 -8 -15 -24 -37 -36 -47 -12 -11 -21 -23 -21 -29 0 -5 17 6 39 26 40 36 99 61 128 54 11 -2 0 -9 -27 -16 -24 -7 -53 -19 -63 -26 -18 -13 -18 -14 1 -24 29 -15 68 -14 104 5 16 8 45 16 64 17 39 2 42 9 13 38 -42 42 -115 59 -166 39z" />
  </g>
</svg>